<svg width="19" height="21" viewBox="0 0 19 21" fill="none" xmlns="http://www.w3.org/2000/svg">
<path d="M12.6667 20.5L6.33333 18.1667L1.425 20.1667C1.07315 20.3148 0.747685 20.273 0.448611 20.0411C0.149537 19.8093 0 19.4993 0 19.1111V3.55556C0 3.31481 0.0661481 3.10185 0.198444 2.91667C0.330741 2.73148 0.510889 2.59259 0.738889 2.5L6.33333 0.5L12.6667 2.83333L17.575 0.833333C17.9268 0.685185 18.2523 0.727037 18.5514 0.958889C18.8505 1.19074 19 1.50074 19 1.88889V17.4444C19 17.6852 18.9339 17.8981 18.8016 18.0833C18.6693 18.2685 18.4891 18.4074 18.2611 18.5L12.6667 20.5ZM11.6111 17.7778V4.77778L7.38889 3.22222V16.2222L11.6111 17.7778Z" fill="#828282"/>
</svg>
