<svg width="25" height="25" viewBox="0 0 25 25" fill="none" xmlns="http://www.w3.org/2000/svg">
<path d="M3.125 11.8684C2.25 11.8684 1.51042 11.5632 0.90625 10.9526C0.302083 10.3421 0 9.59474 0 8.71053C0 7.82631 0.302083 7.07895 0.90625 6.46842C1.51042 5.85789 2.25 5.55263 3.125 5.55263C4 5.55263 4.73958 5.85789 5.34375 6.46842C5.94792 7.07895 6.25 7.82631 6.25 8.71053C6.25 9.59474 5.94792 10.3421 5.34375 10.9526C4.73958 11.5632 4 11.8684 3.125 11.8684ZM8.75 6.81579C7.875 6.81579 7.13542 6.51053 6.53125 5.9C5.92708 5.28947 5.625 4.5421 5.625 3.65789C5.625 2.77368 5.92708 2.02632 6.53125 1.41579C7.13542 0.805263 7.875 0.5 8.75 0.5C9.625 0.5 10.3646 0.805263 10.9688 1.41579C11.5729 2.02632 11.875 2.77368 11.875 3.65789C11.875 4.5421 11.5729 5.28947 10.9688 5.9C10.3646 6.51053 9.625 6.81579 8.75 6.81579ZM16.25 6.81579C15.375 6.81579 14.6354 6.51053 14.0312 5.9C13.4271 5.28947 13.125 4.5421 13.125 3.65789C13.125 2.77368 13.4271 2.02632 14.0312 1.41579C14.6354 0.805263 15.375 0.5 16.25 0.5C17.125 0.5 17.8646 0.805263 18.4688 1.41579C19.0729 2.02632 19.375 2.77368 19.375 3.65789C19.375 4.5421 19.0729 5.28947 18.4688 5.9C17.8646 6.51053 17.125 6.81579 16.25 6.81579ZM21.875 11.8684C21 11.8684 20.2604 11.5632 19.6562 10.9526C19.0521 10.3421 18.75 9.59474 18.75 8.71053C18.75 7.82631 19.0521 7.07895 19.6562 6.46842C20.2604 5.85789 21 5.55263 21.875 5.55263C22.75 5.55263 23.4896 5.85789 24.0938 6.46842C24.6979 7.07895 25 7.82631 25 8.71053C25 9.59474 24.6979 10.3421 24.0938 10.9526C23.4896 11.5632 22.75 11.8684 21.875 11.8684ZM5.8125 24.5C4.875 24.5 4.08833 24.1366 3.4525 23.4099C2.81667 22.6832 2.49917 21.8259 2.5 20.8381C2.5 19.7434 2.87 18.7855 3.61 17.9644C4.35 17.1434 5.08417 16.3328 5.8125 15.5328C6.41667 14.8802 6.9375 14.1699 7.375 13.4019C7.8125 12.6339 8.33333 11.9126 8.9375 11.2381C9.39583 10.6907 9.92708 10.2381 10.5312 9.88021C11.1354 9.52231 11.7917 9.34295 12.5 9.3421C13.2083 9.3421 13.8646 9.51052 14.4688 9.84737C15.0729 10.1842 15.6042 10.6263 16.0625 11.1737C16.6458 11.8474 17.1617 12.5737 17.61 13.3526C18.0583 14.1316 18.5842 14.8579 19.1875 15.5316C19.9167 16.3316 20.6508 17.1421 21.39 17.9632C22.1292 18.7842 22.4992 19.7421 22.5 20.8368C22.5 21.8263 22.1821 22.6844 21.5462 23.4112C20.9104 24.1379 20.1242 24.5008 19.1875 24.5C18.0625 24.5 16.9479 24.4053 15.8438 24.2158C14.7396 24.0263 13.625 23.9316 12.5 23.9316C11.375 23.9316 10.2604 24.0263 9.15625 24.2158C8.05208 24.4053 6.9375 24.5 5.8125 24.5Z" fill="white"/>
</svg>
